<svg width="24" height="24" viewBox="0 0 24 24" fill="none" xmlns="http://www.w3.org/2000/svg">
<path fill-rule="evenodd" clip-rule="evenodd" d="M2.78786 2.78786C3.30496 2.27075 4.14336 2.27075 4.66047 2.78786L12 10.1274L19.3396 2.78786C19.8567 2.27075 20.6951 2.27075 21.2122 2.78786C21.7293 3.30496 21.7293 4.14336 21.2122 4.66047L13.8726 12L21.2122 19.3396C21.7293 19.8567 21.7293 20.6951 21.2122 21.2122C20.6951 21.7293 19.8567 21.7293 19.3396 21.2122L12 13.8726L4.66047 21.2122C4.14336 21.7293 3.30496 21.7293 2.78786 21.2122C2.27075 20.6951 2.27075 19.8567 2.78786 19.3396L10.1274 12L2.78786 4.66047C2.27075 4.14336 2.27075 3.30496 2.78786 2.78786Z" fill="black"/>
</svg>
