<svg width="24" height="24" viewBox="0 0 24 24" fill="none" xmlns="http://www.w3.org/2000/svg">
<path fill-rule="evenodd" clip-rule="evenodd" d="M18.2326 4.1592C18.0214 4.1592 17.8123 4.2008 17.6171 4.28162C17.422 4.36244 17.2447 4.4809 17.0954 4.63024L5.38614 16.3395L4.53323 19.4668L7.66056 18.6139L19.3698 6.90467C19.5191 6.75533 19.6376 6.57803 19.7184 6.38291C19.7993 6.18779 19.8409 5.97866 19.8409 5.76746C19.8409 5.55625 19.7993 5.34712 19.7184 5.152C19.6376 4.95688 19.5191 4.77959 19.3698 4.63024C19.2205 4.4809 19.0432 4.36244 18.848 4.28162C18.6529 4.2008 18.4438 4.1592 18.2326 4.1592ZM16.9439 2.65635C17.3525 2.48713 17.7904 2.40002 18.2326 2.40002C18.6748 2.40002 19.1127 2.48713 19.5213 2.65635C19.9298 2.82558 20.301 3.07363 20.6137 3.38632C20.9264 3.69902 21.1745 4.07024 21.3437 4.4788C21.5129 4.88735 21.6 5.32524 21.6 5.76746C21.6 6.20967 21.5129 6.64756 21.3437 7.05612C21.1745 7.46467 20.9264 7.83589 20.6137 8.14859L8.73932 20.023C8.63108 20.1312 8.49647 20.2094 8.34879 20.2496L3.51107 21.569C3.20654 21.6521 2.88086 21.5656 2.65767 21.3424C2.43447 21.1192 2.34799 20.7935 2.43104 20.489L3.75042 15.6513C3.79069 15.5036 3.86881 15.369 3.97705 15.2607L15.8515 3.38632C16.1642 3.07363 16.5354 2.82558 16.9439 2.65635Z" fill="black"/>
</svg>
