<svg width="24" height="24" viewBox="0 0 24 24" fill="none" xmlns="http://www.w3.org/2000/svg">
<path d="M12 2.40002C14.0686 2.40002 16.0526 3.24638 17.5154 4.75289C18.9782 6.25941 19.8 8.30268 19.8 10.4332C19.8 13.177 18.3474 15.4227 16.8169 17.0338C16.0521 17.8299 15.2177 18.5518 14.3244 19.1903L13.9552 19.4491L13.7818 19.5678L13.4551 19.7821L13.1639 19.965L12.8034 20.181C12.5585 20.3246 12.2817 20.4 12 20.4C11.7182 20.4 11.4414 20.3246 11.1966 20.181L10.836 19.965L10.3854 19.6794L10.219 19.5678L9.86362 19.3242C8.89986 18.6524 8.00208 17.8853 7.18302 17.0338C5.65248 15.4209 4.19995 13.177 4.19995 10.4332C4.19995 8.30268 5.02173 6.25941 6.48452 4.75289C7.9473 3.24638 9.93126 2.40002 12 2.40002V2.40002ZM12 7.75548C11.6585 7.75548 11.3204 7.82475 11.005 7.95931C10.6895 8.09388 10.4029 8.29112 10.1615 8.53977C9.92004 8.78842 9.72853 9.08361 9.59786 9.40849C9.4672 9.73337 9.39995 10.0816 9.39995 10.4332C9.39995 10.7849 9.4672 11.1331 9.59786 11.4579C9.72853 11.7828 9.92004 12.078 10.1615 12.3267C10.4029 12.5753 10.6895 12.7725 11.005 12.9071C11.3204 13.0417 11.6585 13.1109 12 13.1109C12.6895 13.1109 13.3508 12.8288 13.8384 12.3267C14.326 11.8245 14.6 11.1434 14.6 10.4332C14.6 9.72304 14.326 9.04194 13.8384 8.53977C13.3508 8.0376 12.6895 7.75548 12 7.75548V7.75548Z" fill="black"/>
</svg>
