<svg width="24" height="24" viewBox="0 0 24 24" fill="none" xmlns="http://www.w3.org/2000/svg">
<path fill-rule="evenodd" clip-rule="evenodd" d="M5.85095 3.85095C6.1557 3.5462 6.56902 3.375 7 3.375H17C17.431 3.375 17.8443 3.5462 18.149 3.85095C18.4538 4.1557 18.625 4.56902 18.625 5V20.625H15.375V17C15.375 16.3701 15.1248 15.766 14.6794 15.3206C14.234 14.8752 13.6299 14.625 13 14.625H11C10.3701 14.625 9.76602 14.8752 9.32062 15.3206C8.87522 15.766 8.625 16.3701 8.625 17V20.625H5.375V5C5.375 4.56902 5.5462 4.1557 5.85095 3.85095ZM14.625 17V20.625H9.375V17C9.375 16.569 9.54621 16.1557 9.85095 15.851C10.1557 15.5462 10.569 15.375 11 15.375H13C13.431 15.375 13.8443 15.5462 14.149 15.851C14.4538 16.1557 14.625 16.569 14.625 17ZM12.375 7C12.375 6.79289 12.2071 6.625 12 6.625C11.7929 6.625 11.625 6.79289 11.625 7V8.625H10C9.79289 8.625 9.625 8.79289 9.625 9C9.625 9.20711 9.79289 9.375 10 9.375H11.625V11C11.625 11.2071 11.7929 11.375 12 11.375C12.2071 11.375 12.375 11.2071 12.375 11V9.375H14C14.2071 9.375 14.375 9.20711 14.375 9C14.375 8.79289 14.2071 8.625 14 8.625H12.375V7Z" fill="black"/>
</svg>
