<svg width="24" height="24" viewBox="0 0 24 24" fill="none" xmlns="http://www.w3.org/2000/svg">
<path fill-rule="evenodd" clip-rule="evenodd" d="M14.7335 15.0146L21.6 8.70682L14.7347 2.40002L12.4825 4.4544L15.523 7.24759H10.2075C8.1382 7.24759 6.15281 8.00268 4.68831 9.34804C3.22365 10.6935 2.40002 12.5193 2.40002 14.4238V21.6H5.56826V14.4238C5.56826 12.0608 7.62456 10.166 10.2075 10.166H15.5256L12.4955 12.9587L14.7335 15.0146ZM13.127 4.4557L14.7335 2.99034L20.9566 8.70708L20.9569 8.70682L14.7335 2.98983L13.1268 4.45546L13.127 4.4557ZM16.6226 7.66736H10.2075C8.25685 7.66736 6.38611 8.3792 5.00681 9.64628C3.68402 10.8614 2.91714 12.4918 2.85652 14.204C2.91727 12.492 3.68413 10.8618 5.0068 9.64679C6.3861 8.37971 8.25683 7.66787 10.2075 7.66787H16.6231L16.6226 7.66736ZM5.11564 21.1802H5.11566V14.4238C5.11566 14.3706 5.11661 14.3176 5.11849 14.2649C5.1166 14.3178 5.11564 14.3709 5.11564 14.4243V21.1802ZM16.6226 9.74678L13.1381 12.9582L13.1384 12.9584L16.6231 9.74678H16.6226Z" fill="black"/>
</svg>
