<svg width="24" height="24" viewBox="0 0 24 24" fill="none" xmlns="http://www.w3.org/2000/svg">
<path fill-rule="evenodd" clip-rule="evenodd" d="M12.7652 4.76521C13.6231 3.90727 14.7867 3.42529 16 3.42529C17.2133 3.42529 18.3769 3.90727 19.2349 4.76521C20.0928 5.62314 20.5748 6.78674 20.5748 8.00004C20.5748 9.21334 20.0928 10.3769 19.2349 11.2349L15.5 14.9697L9.03037 8.50004L12.7652 4.76521ZM8.50004 9.03037L14.9697 15.5L11.2349 19.2349C10.3769 20.0928 9.21334 20.5748 8.00004 20.5748C6.78674 20.5748 5.62314 20.0928 4.76521 19.2349C3.90727 18.3769 3.42529 17.2133 3.42529 16C3.42529 14.7867 3.90727 13.6231 4.76521 12.7652L8.50004 9.03037Z" fill="black"/>
</svg>
