<svg width="22" height="20" viewBox="0 0 22 20" fill="none" xmlns="http://www.w3.org/2000/svg">
<path d="M10.0969 0.898962C10.4587 0.138259 11.5413 0.13826 11.9031 0.898963L14.2153 5.76101C14.3611 6.06755 14.6524 6.27921 14.989 6.32313L20.3276 7.01973C21.1629 7.12872 21.4974 8.15836 20.8857 8.73749L16.9762 12.439C16.7297 12.6724 16.6184 13.0148 16.6806 13.3485L17.6678 18.6411C17.8223 19.4692 16.9464 20.1055 16.2066 19.7027L11.4782 17.1283C11.18 16.966 10.82 16.966 10.5218 17.1283L5.79336 19.7027C5.05356 20.1055 4.1777 19.4692 4.33215 18.6411L5.31937 13.3485C5.38161 13.0148 5.27033 12.6724 5.02384 12.439L1.11427 8.73749C0.502594 8.15836 0.837147 7.12871 1.67241 7.01973L7.01101 6.32313C7.34759 6.27921 7.63892 6.06755 7.7847 5.76101L10.0969 0.898962Z" fill="black"/>
</svg>
