<svg width="24" height="24" viewBox="0 0 24 24" fill="none" xmlns="http://www.w3.org/2000/svg">
<path d="M23.6429 4.93695C22.8079 5.30695 21.9109 5.55696 20.9679 5.66996C21.941 5.08775 22.6689 4.17142 23.0159 3.09195C22.1018 3.63494 21.1013 4.01715 20.0579 4.22196C19.3563 3.47282 18.427 2.97628 17.4143 2.80943C16.4015 2.64258 15.362 2.81475 14.4572 3.29921C13.5523 3.78367 12.8327 4.55332 12.4101 5.48866C11.9875 6.424 11.8855 7.4727 12.1199 8.47195C10.2676 8.37895 8.45558 7.8975 6.80137 7.05886C5.14717 6.22022 3.68779 5.04312 2.51795 3.60396C2.11795 4.29396 1.88795 5.09396 1.88795 5.94596C1.8875 6.71295 2.07638 7.4682 2.43783 8.14469C2.79928 8.82118 3.32211 9.39799 3.95995 9.82396C3.22023 9.80042 2.49682 9.60054 1.84995 9.24095V9.30095C1.84988 10.3767 2.22198 11.4193 2.90313 12.252C3.58428 13.0846 4.53252 13.6559 5.58695 13.869C4.90073 14.0547 4.18129 14.082 3.48295 13.949C3.78045 14.8746 4.35995 15.684 5.14032 16.2639C5.92069 16.8438 6.86287 17.1651 7.83495 17.183C6.18478 18.4784 4.14684 19.181 2.04895 19.178C1.67733 19.1781 1.30603 19.1564 0.936951 19.113C3.06643 20.4821 5.54529 21.2088 8.07695 21.206C16.6469 21.206 21.3319 14.108 21.3319 7.95195C21.3319 7.75196 21.327 7.54995 21.3179 7.34995C22.2292 6.69093 23.0159 5.87485 23.6409 4.93995L23.6429 4.93695Z" fill="black"/>
</svg>
