<svg width="24" height="24" viewBox="0 0 24 24" fill="none" xmlns="http://www.w3.org/2000/svg">
<g filter="url(#filter0_b_1_306)">
<path fill-rule="evenodd" clip-rule="evenodd" d="M16.0248 15.0557C18.3196 15.9474 20.2415 17.5744 21.4795 19.6736C21.5386 19.7742 21.5769 19.8852 21.5923 20.0004C21.6078 20.1156 21.5999 20.2326 21.5693 20.3448C21.5387 20.457 21.4859 20.5621 21.414 20.6542C21.342 20.7463 21.2523 20.8236 21.15 20.8816L21.149 20.8821C21.0135 20.9601 20.859 21.0006 20.702 20.9994C20.5441 20.9987 20.3884 20.9576 20.2516 20.8799C20.1149 20.8024 20.0011 20.6911 19.9215 20.557C19.1186 19.1897 17.9639 18.0543 16.5735 17.2649C15.183 16.4753 13.6056 16.0597 11.9999 16.0597C10.3942 16.0597 8.81686 16.4753 7.4263 17.2649C6.03574 18.0544 4.88099 19.19 4.07811 20.5575C3.95892 20.7607 3.76252 20.909 3.53221 20.9697C3.3019 21.0305 3.05647 20.9988 2.84991 20.8816C2.64334 20.7644 2.49255 20.5713 2.43075 20.3447C2.36897 20.1183 2.40114 19.877 2.52017 19.6739C3.75816 17.5746 5.6801 15.9474 7.97505 15.0557L8.27056 14.9409L8.01639 14.7534C6.90162 13.9311 6.07815 12.7847 5.66266 11.4766C5.24716 10.1685 5.26071 8.76491 5.70137 7.46476C6.14203 6.16462 6.98747 5.03381 8.1179 4.2325C9.24834 3.43119 10.6065 3 11.9999 3C13.3934 3 14.7515 3.43119 15.8819 4.2325C17.0124 5.03381 17.8578 6.16462 18.2985 7.46476C18.7391 8.76491 18.7527 10.1685 18.3372 11.4766C17.9217 12.7847 17.0982 13.9311 15.9834 14.7534L15.7293 14.9409L16.0248 15.0557Z" fill="black"/>
<path d="M11.9998 15.0583C6.24055 15.0583 3.24421 18.0116 3.24421 19.6991V21H20.7553V19.6991C20.7553 18.0116 17.759 15.0583 11.9998 15.0583Z" fill="black"/>
</g>
<defs>
<filter id="filter0_b_1_306" x="-40" y="-40" width="104" height="104" filterUnits="userSpaceOnUse" color-interpolation-filters="sRGB">
<feFlood flood-opacity="0" result="BackgroundImageFix"/>
<feGaussianBlur in="BackgroundImageFix" stdDeviation="20"/>
<feComposite in2="SourceAlpha" operator="in" result="effect1_backgroundBlur_1_306"/>
<feBlend mode="normal" in="SourceGraphic" in2="effect1_backgroundBlur_1_306" result="shape"/>
</filter>
</defs>
</svg>
