<svg width="24" height="24" viewBox="0 0 24 24" fill="none" xmlns="http://www.w3.org/2000/svg">
<g filter="url(#filter0_b_1_345)">
<path fill-rule="evenodd" clip-rule="evenodd" d="M7.90969 14.8932C7.84563 14.9181 7.78185 14.9435 7.71837 14.9696C7.78185 14.9435 7.84563 14.9181 7.90969 14.8932ZM16.2491 14.7723C16.1968 14.8133 16.1438 14.8536 16.0901 14.8932C16.0901 14.8932 16.0901 14.8932 16.0901 14.8932C16.1542 14.9181 16.218 14.9435 16.2815 14.9696C16.3624 15.0027 16.4429 15.0368 16.5229 15.0718M16.0248 15.0557C18.3196 15.9474 20.2415 17.5745 21.4795 19.6737C21.5386 19.7742 21.5769 19.8853 21.5923 20.0005C21.6078 20.1156 21.5999 20.2326 21.5693 20.3448C21.5387 20.457 21.4859 20.5622 21.414 20.6543C21.342 20.7464 21.2523 20.8236 21.15 20.8816L21.149 20.8822C21.0135 20.9601 20.859 21.0006 20.702 20.9994H20.7013C20.5434 20.9988 20.3884 20.9576 20.2516 20.88C20.1149 20.8024 20.0011 20.6911 19.9215 20.5571C19.1186 19.1898 17.9639 18.0543 16.5735 17.2649C15.183 16.4754 13.6056 16.0597 11.9999 16.0597C10.3942 16.0597 8.81686 16.4754 7.4263 17.2649C6.03574 18.0544 4.88099 19.19 4.07811 20.5575L4.07807 20.5576C3.95888 20.7608 3.76252 20.909 3.53221 20.9698C3.3019 21.0306 3.05647 20.9989 2.84991 20.8817C2.64334 20.7645 2.49255 20.5713 2.43075 20.3448C2.36897 20.1183 2.40114 19.877 2.52017 19.6739C3.75816 17.5746 5.6801 15.9475 7.97505 15.0557L8.27056 14.9409L8.01639 14.7534C6.90162 13.9311 6.07815 12.7847 5.66266 11.4766C5.24716 10.1685 5.26071 8.76492 5.70137 7.46477C6.14203 6.16463 6.98747 5.03381 8.1179 4.2325C9.24834 3.43119 10.6065 3 11.9999 3C13.3934 3 14.7515 3.43119 15.8819 4.2325C17.0124 5.03381 17.8578 6.16463 18.2985 7.46477C18.7391 8.76492 18.7527 10.1685 18.3372 11.4766C17.9217 12.7847 17.0982 13.9311 15.9834 14.7534L15.7293 14.9409L16.0248 15.0557ZM7.97386 6.88407C7.44182 7.66717 7.15785 8.58784 7.15785 9.52966C7.15785 10.7926 7.66797 12.0038 8.57603 12.8969C9.48408 13.7899 10.7157 14.2916 11.9999 14.2916C12.9576 14.2916 13.8938 14.0123 14.6901 13.4891C15.4863 12.9658 16.1069 12.2221 16.4734 11.352C16.8399 10.4818 16.9358 9.52437 16.7489 8.60065C16.5621 7.67694 16.101 6.82843 15.4238 6.16245C14.7466 5.49647 13.8839 5.04292 12.9446 4.85917C12.0053 4.67542 11.0317 4.76973 10.1469 5.13016C9.26213 5.4906 8.50591 6.10097 7.97386 6.88407Z" fill="black"/>
</g>
<defs>
<filter id="filter0_b_1_345" x="-40" y="-40" width="104" height="104" filterUnits="userSpaceOnUse" color-interpolation-filters="sRGB">
<feFlood flood-opacity="0" result="BackgroundImageFix"/>
<feGaussianBlur in="BackgroundImageFix" stdDeviation="20"/>
<feComposite in2="SourceAlpha" operator="in" result="effect1_backgroundBlur_1_345"/>
<feBlend mode="normal" in="SourceGraphic" in2="effect1_backgroundBlur_1_345" result="shape"/>
</filter>
</defs>
</svg>
